<svg id="visual" viewBox="0 0 960 540" width="960" height="540" xmlns="http://www.w3.org/2000/svg" xmlns:xlink="http://www.w3.org/1999/xlink" version="1.1"><path d="M0 66L87 66L87 55L175 55L175 77L262 77L262 55L349 55L349 114L436 114L436 152L524 152L524 158L611 158L611 104L698 104L698 55L785 55L785 87L873 87L873 131L960 131L960 82L960 0L960 0L873 0L873 0L785 0L785 0L698 0L698 0L611 0L611 0L524 0L524 0L436 0L436 0L349 0L349 0L262 0L262 0L175 0L175 0L87 0L87 0L0 0Z" fill="#dedede"></path><path d="M0 303L87 303L87 320L175 320L175 266L262 266L262 228L349 228L349 298L436 298L436 228L524 228L524 260L611 260L611 303L698 303L698 320L785 320L785 271L873 271L873 282L960 282L960 195L960 80L960 129L873 129L873 85L785 85L785 53L698 53L698 102L611 102L611 156L524 156L524 150L436 150L436 112L349 112L349 53L262 53L262 75L175 75L175 53L87 53L87 64L0 64Z" fill="#cccccc"></path><path d="M0 401L87 401L87 406L175 406L175 433L262 433L262 401L349 401L349 422L436 422L436 422L524 422L524 433L611 433L611 401L698 401L698 406L785 406L785 417L873 417L873 406L960 406L960 406L960 193L960 280L873 280L873 269L785 269L785 318L698 318L698 301L611 301L611 258L524 258L524 226L436 226L436 296L349 296L349 226L262 226L262 264L175 264L175 318L87 318L87 301L0 301Z" fill="#bbbbbb"></path><path d="M0 455L87 455L87 460L175 460L175 482L262 482L262 487L349 487L349 482L436 482L436 487L524 487L524 509L611 509L611 492L698 492L698 449L785 449L785 498L873 498L873 476L960 476L960 503L960 404L960 404L873 404L873 415L785 415L785 404L698 404L698 399L611 399L611 431L524 431L524 420L436 420L436 420L349 420L349 399L262 399L262 431L175 431L175 404L87 404L87 399L0 399Z" fill="#aaaaaa"></path><path d="M0 541L87 541L87 541L175 541L175 541L262 541L262 541L349 541L349 541L436 541L436 541L524 541L524 541L611 541L611 541L698 541L698 541L785 541L785 541L873 541L873 541L960 541L960 541L960 501L960 474L873 474L873 496L785 496L785 447L698 447L698 490L611 490L611 507L524 507L524 485L436 485L436 480L349 480L349 485L262 485L262 480L175 480L175 458L87 458L87 453L0 453Z" fill="#9a9a9a"></path></svg>